<svg width="32" height="32" viewBox="0 0 32 32" fill="none" xmlns="http://www.w3.org/2000/svg">
    <mask id="mask0_4_566" style="mask-type:alpha" maskUnits="userSpaceOnUse" x="0" y="0" width="32" height="32">
    <rect width="32" height="32" fill="#D9D9D9"/>
    </mask>
    <g mask="url(#mask0_4_566)">
    </g>
    <path d="M26 15H8.41403L13.707 9.70699C13.8025 9.61474 13.8787 9.5044 13.9311 9.38239C13.9835 9.26039 14.0111 9.12917 14.0123 8.99639C14.0134 8.86361 13.9881 8.73193 13.9379 8.60904C13.8876 8.48614 13.8133 8.37449 13.7194 8.28059C13.6255 8.1867 13.5139 8.11245 13.391 8.06217C13.2681 8.01189 13.1364 7.98659 13.0036 7.98774C12.8709 7.98889 12.7396 8.01648 12.6176 8.06889C12.4956 8.1213 12.3853 8.19748 12.293 8.29299L5.29303 15.293C5.10556 15.4805 5.00024 15.7348 5.00024 16C5.00024 16.2652 5.10556 16.5195 5.29303 16.707L12.293 23.707C12.4816 23.8891 12.7342 23.9899 12.9964 23.9877C13.2586 23.9854 13.5094 23.8802 13.6948 23.6948C13.8803 23.5094 13.9854 23.2586 13.9877 22.9964C13.99 22.7342 13.8892 22.4816 13.707 22.293L8.41403 17H26C26.2652 17 26.5196 16.8946 26.7071 16.7071C26.8947 16.5196 27 16.2652 27 16C27 15.7348 26.8947 15.4804 26.7071 15.2929C26.5196 15.1053 26.2652 15 26 15Z" fill="white"/>
    </svg>
    