<svg width="41" height="41" viewBox="0 0 41 41" fill="none" xmlns="http://www.w3.org/2000/svg">
    <mask id="mask0_4_135" style="mask-type:alpha" maskUnits="userSpaceOnUse" x="0" y="0" width="41" height="41">
    <rect x="0.400024" y="0.5" width="40" height="40" fill="#D9D9D9"/>
    </mask>
    <g mask="url(#mask0_4_135)">
    </g>
    <g clip-path="url(#clip0_4_135)">
    <path d="M5.27618 19.457L5.27624 19.4569C9.03054 14.9202 14.6363 10.6572 20.4001 10.6572C26.1628 10.6572 31.7672 14.9171 35.524 19.4568C36.0266 20.0645 36.0242 20.9438 35.524 21.5486C34.587 22.681 32.6226 24.866 30.005 26.7714L30.005 26.7714C26.704 29.1744 23.5326 30.344 20.3948 30.3427C17.257 30.3415 14.0891 29.1692 10.7953 26.7714L10.7953 26.7714C8.17773 24.866 6.2133 22.681 5.27625 21.5486L5.27618 21.5485C4.77472 20.9428 4.77472 20.0627 5.27618 19.457ZM27.7972 20.5027C27.7972 16.4234 24.4795 13.1057 20.4001 13.1057C16.3208 13.1057 13.0031 16.4234 13.0031 20.5027C13.0031 24.5821 16.3208 27.8998 20.4001 27.8998C24.4795 27.8998 27.7972 24.5821 27.7972 20.5027Z" stroke="white"/>
    </g>
    <defs>
    <clipPath id="clip0_4_135">
    <rect width="32" height="32" fill="white" transform="translate(4.40002 4.5)"/>
    </clipPath>
    </defs>
    </svg>
    