<svg width="41" height="41" viewBox="0 0 41 41" fill="none" xmlns="http://www.w3.org/2000/svg">
    <mask id="mask0_4_77" style="mask-type:alpha" maskUnits="userSpaceOnUse" x="0" y="0" width="41" height="41">
    <rect x="0.400024" y="0.5" width="40" height="40" fill="#D9D9D9"/>
    </mask>
    <g mask="url(#mask0_4_77)">
    </g>
    <g clip-path="url(#clip0_4_77)">
    <path d="M20.4001 25.4292C23.1209 25.4292 25.3266 23.2235 25.3266 20.5027C25.3266 17.7819 23.1209 15.5763 20.4001 15.5763C17.6793 15.5763 15.4736 17.7819 15.4736 20.5027C15.4736 23.2235 17.6793 25.4292 20.4001 25.4292Z" fill="white"/>
    <path d="M35.9093 19.1381C32.1224 14.5621 26.3902 10.1572 20.4001 10.1572C14.409 10.1572 8.67536 14.5651 4.89104 19.1381C4.23643 19.9288 4.23643 21.0767 4.89104 21.8674C5.84246 23.0171 7.83706 25.2365 10.501 27.1756C17.2102 32.0597 23.5753 32.0705 30.2993 27.1756C32.9632 25.2365 34.9578 23.0171 35.9093 21.8674C36.562 21.0782 36.5653 19.9314 35.9093 19.1381ZM20.4001 13.6057C24.2034 13.6057 27.2972 16.6995 27.2972 20.5027C27.2972 24.306 24.2034 27.3998 20.4001 27.3998C16.5969 27.3998 13.5031 24.306 13.5031 20.5027C13.5031 16.6995 16.5969 13.6057 20.4001 13.6057Z" fill="white"/>
    </g>
    <defs>
    <clipPath id="clip0_4_77">
    <rect width="32" height="32" fill="white" transform="translate(4.40002 4.5)"/>
    </clipPath>
    </defs>
    </svg>
    