<svg width="24" height="24" viewBox="0 0 24 24" fill="none" xmlns="http://www.w3.org/2000/svg">
    <mask id="mask0_3_781" style="mask-type:alpha" maskUnits="userSpaceOnUse" x="0" y="0" width="24" height="24">
    <rect width="24" height="24" fill="#D9D9D9"/>
    </mask>
    <g mask="url(#mask0_3_781)">
    <path d="M22.7077 15.2925C22.5202 15.105 22.2659 14.9997 22.0007 14.9997C21.7356 14.9997 21.4813 15.105 21.2937 15.2925L18.0009 18.5853V2.99996C18.0009 2.73475 17.8955 2.48041 17.708 2.29288C17.5205 2.10535 17.2661 2 17.0009 2C16.7357 2 16.4814 2.10535 16.2938 2.29288C16.1063 2.48041 16.0009 2.73475 16.0009 2.99996V18.5853L12.7081 15.2925C12.5195 15.1103 12.2669 15.0095 12.0047 15.0118C11.7425 15.0141 11.4917 15.1193 11.3063 15.3047C11.1209 15.4901 11.0157 15.7409 11.0135 16.003C11.0112 16.2652 11.112 16.5178 11.2941 16.7064L16.2939 21.7062C16.3868 21.7993 16.4972 21.8732 16.6187 21.9236C16.7401 21.9741 16.8704 22 17.0019 22C17.1334 22 17.2637 21.9741 17.3852 21.9236C17.5066 21.8732 17.617 21.7993 17.7099 21.7062L22.7097 16.7064C22.8969 16.5186 23.0018 16.2642 23.0015 15.999C23.0011 15.7339 22.8954 15.4797 22.7077 15.2925Z" fill="white"/>
    <path d="M12.7081 7.29281L7.70829 2.29301C7.61516 2.19969 7.50433 2.12592 7.38231 2.07602C7.13769 1.9749 6.86296 1.9749 6.61834 2.07602C6.49631 2.12592 6.38548 2.19969 6.29235 2.29301L1.29254 7.29281C1.10504 7.48058 0.999813 7.73514 1 8.00049C1.00019 8.26584 1.10578 8.52026 1.29354 8.70776C1.48131 8.89526 1.73587 9.00049 2.00122 9.0003C2.26658 9.00011 2.52099 8.89452 2.70849 8.70676L6.00136 5.41389V20.9993C6.00136 21.2645 6.10671 21.5188 6.29424 21.7064C6.48177 21.8939 6.73611 21.9992 7.00132 21.9992C7.26653 21.9992 7.52087 21.8939 7.7084 21.7064C7.89593 21.5188 8.00128 21.2645 8.00128 20.9993V5.41389L11.2942 8.70676C11.4827 8.88891 11.7353 8.9897 11.9975 8.98742C12.2597 8.98514 12.5105 8.87998 12.6959 8.69458C12.8813 8.50917 12.9865 8.25837 12.9888 7.99619C12.991 7.734 12.8902 7.48141 12.7081 7.29281Z" fill="white"/>
    </g>
    </svg>
    